<svg width="24" height="25" viewBox="0 0 24 25" fill="none" xmlns="http://www.w3.org/2000/svg">
<path d="M3.296 21.102L9.66 14.738M17.674 11.908L15.769 17.623C15.7386 17.7146 15.6865 17.7975 15.6173 17.8647C15.548 17.9319 15.4635 17.9814 15.371 18.009L3.693 21.48C3.58779 21.5112 3.47603 21.513 3.36987 21.4852C3.26372 21.4573 3.16723 21.4009 3.09093 21.322C3.01462 21.2431 2.96141 21.1448 2.9371 21.0378C2.91278 20.9308 2.91828 20.8191 2.953 20.715L6.745 9.341C6.77218 9.25933 6.81661 9.18447 6.87527 9.12149C6.93394 9.05851 7.00547 9.00889 7.085 8.976L12.472 6.758C12.5815 6.71277 12.702 6.70098 12.8182 6.72411C12.9344 6.74725 13.0412 6.80427 13.125 6.888L17.529 11.294C17.6078 11.3728 17.6631 11.472 17.6887 11.5804C17.7143 11.6889 17.7092 11.8023 17.674 11.908Z" stroke="white" stroke-opacity="0.6" stroke-width="1.5" stroke-linecap="round" stroke-linejoin="round"/>
<path   d="M17.792 11.556L20.62 8.727C20.995 8.35195 21.2056 7.84333 21.2056 7.313C21.2056 6.78267 20.995 6.27406 20.62 5.899L18.5 3.777C18.3143 3.5912 18.0938 3.44381 17.8511 3.34325C17.6084 3.24269 17.3482 3.19093 17.0855 3.19093C16.8228 3.19093 16.5627 3.24269 16.32 3.34325C16.0773 3.44381 15.8568 3.5912 15.671 3.777L12.843 6.606M11.781 12.616C11.6417 12.4767 11.4763 12.3663 11.2943 12.2909C11.1122 12.2156 10.9172 12.1768 10.7202 12.1769C10.5232 12.1769 10.3281 12.2158 10.1461 12.2912C9.96414 12.3666 9.79879 12.4772 9.65952 12.6165C9.52026 12.7558 9.4098 12.9212 9.33445 13.1033C9.25911 13.2853 9.22035 13.4804 9.2204 13.6774C9.22044 13.8744 9.25929 14.0694 9.33472 14.2514C9.41015 14.4334 9.52069 14.5987 9.66002 14.738C9.94142 15.0193 10.323 15.1772 10.7209 15.1771C11.1187 15.177 11.5003 15.0189 11.7815 14.7375C12.0628 14.4561 12.2207 14.0745 12.2207 13.6766C12.2206 13.2788 12.0624 12.8973 11.781 12.616Z" stroke="white" stroke-opacity="0.6" stroke-width="1.5" stroke-linecap="round" stroke-linejoin="round"/>
</svg>
