<svg width="237" height="150" viewBox="0 0 237 150" fill="none" xmlns="http://www.w3.org/2000/svg">
<g clip-path="url(#clip0_202_11)">
<path d="M228.2 0.0758286H8.8002C3.93999 0.0758286 0 4.02729 0 8.90166V141.132C0 146.007 3.93999 149.958 8.8002 149.958H228.2C233.06 149.958 237 146.007 237 141.132V8.90166C237 4.02729 233.06 0.0758286 228.2 0.0758286Z" fill="#272A38"/>
<mask id="mask0_202_11" style="mask-type:alpha" maskUnits="userSpaceOnUse" x="0" y="0" width="237" height="150">
<path d="M228.2 0.0758286H8.8002C3.93999 0.0758286 0 4.02729 0 8.90166V141.132C0 146.007 3.93999 149.958 8.8002 149.958H228.2C233.06 149.958 237 146.007 237 141.132V8.90166C237 4.02729 233.06 0.0758286 228.2 0.0758286Z" fill="#272A38"/>
<path d="M228.2 0.0758286H8.8002C3.93999 0.0758286 0 4.02729 0 8.90166V141.132C0 146.007 3.93999 149.958 8.8002 149.958H228.2C233.06 149.958 237 146.007 237 141.132V8.90166C237 4.02729 233.06 0.0758286 228.2 0.0758286Z" fill="#272A38"/>
</mask>
<g mask="url(#mask0_202_11)">
<path d="M54.594 178.545L101.222 121.898C111.966 108.908 129.938 106.127 141.483 115.677C153.018 125.228 153.701 143.506 143.006 156.496L96.3778 213.143C85.634 226.142 67.6623 228.924 56.1274 219.374C44.5826 209.842 43.8988 191.534 54.594 178.545Z" fill="url(#paint0_linear_202_11)"/>
<path opacity="0.5" d="M211.968 129.001C218.026 129.001 222.937 124.076 222.937 118.001C222.937 111.925 218.026 107 211.968 107C205.911 107 201 111.925 201 118.001C201 124.076 205.911 129.001 211.968 129.001Z" fill="white"/>
<path d="M197.969 129.001C204.026 129.001 208.937 124.076 208.937 118.001C208.937 111.925 204.026 107 197.969 107C191.911 107 187 111.925 187 118.001C187 124.076 191.911 129.001 197.969 129.001Z" fill="white"/>
</g>
</g>
<defs>
<linearGradient id="paint0_linear_202_11" x1="135.138" y1="113.935" x2="49.0352" y2="217.226" gradientUnits="userSpaceOnUse">
<stop stop-color="#009DCA"/>
<stop offset="1" stop-color="#0047BB"/>
</linearGradient>
<clipPath id="clip0_202_11">
<rect width="237" height="150" fill="white"/>
</clipPath>
</defs>
</svg>
